<svg width="24" height="24" viewBox="0 0 14.1667 18.75" fill="none" xmlns="http://www.w3.org/2000/svg">
<g id="Union">
<path d="M13.3333 7.08333C13.7936 7.08333 14.1667 7.45643 14.1667 7.91667V8.33333C14.1667 11.9633 11.4359 14.9537 7.91667 15.3662V17.0833H10C10.4602 17.0833 10.8333 17.4564 10.8333 17.9167C10.8333 18.3769 10.4602 18.75 10 18.75H4.16667C3.70643 18.75 3.33333 18.3769 3.33333 17.9167C3.33333 17.4564 3.70643 17.0833 4.16667 17.0833H6.25V15.3662C2.7308 14.9537 0 11.9633 0 8.33333V7.91667C0 7.45643 0.373096 7.08333 0.833333 7.08333C1.29357 7.08333 1.66667 7.45643 1.66667 7.91667V8.33333C1.66667 11.3249 4.09179 13.75 7.08333 13.75C10.0749 13.75 12.5 11.3249 12.5 8.33333V7.91667C12.5 7.45643 12.8731 7.08333 13.3333 7.08333Z" fill="white"/>
<path fill-rule="evenodd" clip-rule="evenodd" d="M7.08333 0C9.1544 0 10.8333 1.67893 10.8333 3.75V8.33333C10.8333 10.4044 9.1544 12.0833 7.08333 12.0833C5.01227 12.0833 3.33333 10.4044 3.33333 8.33333V3.75C3.33333 1.67893 5.01227 0 7.08333 0ZM7.08333 1.66667C5.93274 1.66667 5 2.59941 5 3.75V8.33333C5 9.48393 5.93274 10.4167 7.08333 10.4167C8.23393 10.4167 9.16667 9.48393 9.16667 8.33333V3.75C9.16667 2.59941 8.23393 1.66667 7.08333 1.66667Z" fill="white"/>
</g>
</svg>
