<svg width="24" height="24" preserveAspectRatio="xMidYMid meet" viewBox="0 0 15.9192 15.9191" fill="none" xmlns="http://www.w3.org/2000/svg">
<path id="Shape" fill-rule="evenodd" clip-rule="evenodd" d="M11.3095 0.790768C12.3639 -0.2636 14.074 -0.263579 15.1284 0.790768C16.1828 1.84515 16.1828 3.55524 15.1284 4.60962L6.15401 13.5832C5.67942 14.0578 5.10602 14.4232 4.4753 14.6526L1.13253 15.8684C0.824531 15.9803 0.478748 15.9038 0.24703 15.6721C0.0153275 15.4404 -0.0611254 15.0946 0.0507405 14.7866L1.26656 11.4438C1.49591 10.8131 1.86138 10.2397 2.3359 9.76513L11.3095 0.790768ZM3.52901 10.9582C3.22885 11.2585 2.99734 11.6213 2.85225 12.0203L2.2546 13.6638L3.89889 13.0669C4.29787 12.9218 4.66066 12.6903 4.9609 12.3901L12.2587 5.09155C11.8806 4.52514 11.3941 4.03777 10.8276 3.65966L3.52901 10.9582ZM13.9345 1.98462C13.5392 1.58928 12.8987 1.58926 12.5034 1.98462L12.0376 2.4497C12.5825 2.85335 13.0649 3.33601 13.4687 3.88086L13.9345 3.41577C14.3299 3.0204 14.3299 2.37998 13.9345 1.98462Z" fill="var(--fill-0, #8C4AFF)"/>
</svg>
