<svg width="24" height="24" viewBox="0 0 15 15" fill="none" xmlns="http://www.w3.org/2000/svg">
<path id="Union" d="M7.50081 0C7.96105 0 8.33415 0.373096 8.33415 0.833333V6.66504H14.1667C14.6269 6.66504 14.9999 7.03819 15 7.49837C15 7.95861 14.6269 8.33171 14.1667 8.33171H8.33415V14.1667C8.33415 14.6269 7.96105 15 7.50081 15C7.04069 14.9999 6.66748 14.6268 6.66748 14.1667V8.33171H0.833333C0.373143 8.33165 0 7.95858 0 7.49837C7.04254e-05 7.03823 0.373186 6.66509 0.833333 6.66504H6.66748V0.833333C6.66748 0.373179 7.04069 0.000133976 7.50081 0Z" fill="white"/>
</svg>
