<svg width="24" height="24" viewBox="0 0 18.1875 15.1875" fill="none" xmlns="http://www.w3.org/2000/svg">
<path id="Shape" fill-rule="evenodd" clip-rule="evenodd" d="M12.5435 15.1875C13.3695 15.1875 14.04 15.1879 14.5825 15.1436C15.135 15.0984 15.6295 15.0028 16.0891 14.7686C16.8121 14.4001 17.4001 13.8121 17.7686 13.0891C18.0028 12.6295 18.0984 12.135 18.1436 11.5825C18.1879 11.04 18.1875 10.3695 18.1875 9.54346V5.64404C18.1875 4.81804 18.1879 4.14751 18.1436 3.60498C18.0984 3.05255 18.0028 2.55803 17.7686 2.09839C17.4001 1.37535 16.8121 0.787422 16.0891 0.418945C15.6295 0.184748 15.135 0.0890811 14.5825 0.0439454C14.04 -0.000360011 13.3695 9.21736e-08 12.5435 9.21736e-08H5.64404C4.81804 9.21476e-08 4.14751 -0.000360061 3.60498 0.0439454C3.05255 0.0890811 2.55803 0.184748 2.09839 0.418945C1.37535 0.787422 0.787422 1.37535 0.418945 2.09839C0.184748 2.55803 0.0890811 3.05255 0.0439454 3.60498C-0.000360061 4.14751 9.2183e-08 4.81804 9.2183e-08 5.64404V9.54346C9.2183e-08 10.3695 -0.000360075 11.04 0.0439454 11.5825C0.0890811 12.135 0.184748 12.6295 0.418945 13.0891C0.787422 13.8121 1.37535 14.4001 2.09839 14.7686C2.55803 15.0028 3.05255 15.0984 3.60498 15.1436C4.14751 15.1879 4.81804 15.1875 5.64404 15.1875H12.5435ZM5.64404 13.5C4.79004 13.5 4.19987 13.4993 3.74194 13.4619C3.29394 13.4253 3.04658 13.3577 2.8645 13.2649C2.45901 13.0582 2.12929 12.7285 1.92261 12.323C1.82983 12.1409 1.7622 11.8936 1.72559 11.4456C1.68817 10.9876 1.6875 10.3975 1.6875 9.54346V5.64404C1.6875 4.79004 1.68817 4.19987 1.72559 3.74194C1.7622 3.29394 1.82983 3.04658 1.92261 2.8645C2.12929 2.45901 2.45901 2.12929 2.8645 1.92261C3.00443 1.85131 3.18296 1.79528 3.46143 1.75635L4.7666 3.84375L2.8916 6.84375H5.5459L7.42017 3.84375L6.07324 1.6875H9.04395L10.3916 3.84375L8.5166 6.84375H11.1709L13.0452 3.84375L11.6982 1.6875H12.5435C13.3975 1.6875 13.9876 1.68817 14.4456 1.72559C14.543 1.73355 14.6308 1.74404 14.7107 1.75488L16.0166 3.84375L14.1416 6.84375H16.5V9.54346C16.5 10.3975 16.4993 10.9876 16.4619 11.4456C16.4253 11.8936 16.3577 12.1409 16.2649 12.323C16.0582 12.7285 15.7285 13.0582 15.323 13.2649C15.1409 13.3577 14.8936 13.4253 14.4456 13.4619C13.9876 13.4993 13.3975 13.5 12.5435 13.5H5.64404Z" fill="var(--fill-0, #684CFF)"/>
</svg>
