<svg width="24" height="24" viewBox="0 0 14.5825 18.8438" fill="none" xmlns="http://www.w3.org/2000/svg">
<path id="Shape" fill-rule="evenodd" clip-rule="evenodd" d="M7.29126 0C9.15522 0 10.6663 1.51104 10.6663 3.375V3.6665C10.7995 3.67093 10.9247 3.67704 11.042 3.68628C11.4428 3.71786 11.82 3.78642 12.1816 3.95947C12.7392 4.22633 13.2039 4.65427 13.5161 5.18774C13.7185 5.53374 13.8176 5.90352 13.8823 6.30029C13.9454 6.6868 13.9851 7.16194 14.0325 7.73071L14.4492 12.731C14.5232 13.6188 14.5831 14.3374 14.5825 14.9194C14.5819 15.5105 14.5205 16.0429 14.3013 16.5432C13.9579 17.3265 13.363 17.9729 12.6108 18.3801C12.1305 18.6402 11.6053 18.7457 11.0164 18.7954C10.4365 18.8443 9.7157 18.8438 8.82496 18.8438H5.75757C4.86683 18.8438 4.14603 18.8443 3.56617 18.7954C2.97726 18.7457 2.45201 18.6402 1.97168 18.3801C1.21954 17.9729 0.624637 17.3265 0.281254 16.5432C0.0620093 16.0429 0.000599916 15.5105 4.15257e-06 14.9194C-0.000574131 14.3374 0.0593202 13.6188 0.133305 12.731L0.550053 7.73071C0.59745 7.16194 0.637142 6.6868 0.700199 6.30029C0.764945 5.90352 0.863982 5.53374 1.06641 5.18774C1.37858 4.65427 1.84337 4.22633 2.40088 3.95947C2.76255 3.78642 3.13969 3.71786 3.54053 3.68628C3.65788 3.67704 3.78307 3.67093 3.91626 3.6665V3.375C3.91626 1.51104 5.42731 2.31935e-06 7.29126 0ZM5.41626 7.5C5.41626 7.91421 5.08048 8.25 4.66626 8.25C4.25205 8.25 3.91626 7.91421 3.91626 7.5V5.35474C3.82881 5.35818 3.74826 5.36274 3.6731 5.36865C3.37461 5.39217 3.22855 5.43413 3.12964 5.48145C2.87627 5.60268 2.66512 5.79716 2.5232 6.03955C2.46782 6.13419 2.41323 6.27645 2.36499 6.57202C2.31512 6.8778 2.2813 7.276 2.23169 7.87134L1.81568 12.8716C1.73929 13.7882 1.68701 14.4237 1.6875 14.918C1.68801 15.403 1.74091 15.6701 1.82666 15.8657C2.0193 16.3052 2.35318 16.6678 2.77515 16.8962C2.96306 16.998 3.2248 17.073 3.70826 17.1138C4.20071 17.1553 4.83792 17.1562 5.75757 17.1562H8.82496C9.7446 17.1562 10.3818 17.1553 10.8743 17.1138C11.3577 17.073 11.6195 16.998 11.8074 16.8962C12.2293 16.6678 12.5632 16.3052 12.7559 15.8657C12.8416 15.6701 12.8945 15.403 12.895 14.918C12.8955 14.4237 12.8432 13.7882 12.7668 12.8716L12.3508 7.87134C12.3012 7.276 12.2674 6.8778 12.2175 6.57202C12.1693 6.27645 12.1147 6.13419 12.0593 6.03955C11.9174 5.79716 11.7063 5.60268 11.4529 5.48145C11.354 5.43413 11.2079 5.39217 10.9094 5.36865C10.8343 5.36274 10.7537 5.35818 10.6663 5.35474V7.5C10.6663 7.91421 10.3305 8.25 9.91626 8.25C9.50205 8.25 9.16626 7.91421 9.16626 7.5V5.34375H5.41626V7.5ZM7.29126 1.5C6.25573 1.5 5.41626 2.33947 5.41626 3.375V3.65625H9.16626V3.375C9.16626 2.33947 8.3268 1.5 7.29126 1.5Z" fill="var(--fill-0, #C74FFF)"/>
</svg>
