<svg width="24" height="24" viewBox="0 0 18.5625 18.5625" fill="none" xmlns="http://www.w3.org/2000/svg">
<path id="Shape" fill-rule="evenodd" clip-rule="evenodd" d="M9.28125 0C9.46472 0 9.62814 0.11741 9.68628 0.291504L10.103 1.54321C10.9267 1.62967 11.7113 1.84637 12.438 2.16943L13.426 1.29419C13.5634 1.17236 13.7629 1.15195 13.9219 1.24365L13.9775 1.28174C14.0995 1.38074 14.1591 1.54106 14.127 1.69849L13.8611 2.99194C14.5155 3.46927 15.0924 4.04569 15.5698 4.69995L16.8647 4.43555C17.0445 4.3989 17.2278 4.48173 17.3196 4.64062C17.4113 4.7995 17.3909 4.99903 17.269 5.13647L16.3923 6.12378C16.7155 6.85053 16.932 7.63501 17.0186 8.45874L18.271 8.87622C18.4451 8.93436 18.5625 9.09778 18.5625 9.28125C18.5625 9.46472 18.4451 9.62814 18.271 9.68628L17.0186 10.103C16.9321 10.9268 16.7155 11.7112 16.3923 12.438L17.2683 13.426C17.3899 13.5633 17.4099 13.7629 17.3181 13.9219C17.2263 14.0807 17.0436 14.1635 16.864 14.127L15.5698 13.8611C15.0923 14.5156 14.5156 15.0923 13.8611 15.5698L14.127 16.8647C14.1589 17.022 14.0995 17.1819 13.9775 17.2808L13.9219 17.3188C13.763 17.4106 13.5634 17.3902 13.426 17.2683L12.438 16.3923C11.7112 16.7155 10.9268 16.9321 10.103 17.0186L9.68628 18.271C9.62814 18.4451 9.46472 18.5625 9.28125 18.5625C9.09778 18.5625 8.93436 18.4451 8.87622 18.271L8.45874 17.0186C7.63501 16.932 6.85053 16.7155 6.12378 16.3923L5.13721 17.2683C4.99979 17.3902 4.79956 17.4106 4.64062 17.3188C4.48189 17.2271 4.39911 17.0442 4.43555 16.8647L4.69995 15.5698C4.04569 15.0924 3.46927 14.5155 2.99194 13.8611L1.69849 14.127C1.54126 14.1589 1.38141 14.0995 1.28247 13.9775L1.24438 13.9219C1.15249 13.7627 1.17251 13.5625 1.29419 13.4253L2.16943 12.438C1.84637 11.7113 1.62967 10.9267 1.54321 10.103L0.291504 9.68628C0.139064 9.63537 0.0299032 9.50369 0.00512695 9.34863L0 9.28125C9.77002e-09 9.09778 0.11741 8.93436 0.291504 8.87622L1.54321 8.45874C1.62971 7.63542 1.8458 6.85096 2.1687 6.12451L1.29346 5.13721C1.1716 4.99979 1.15116 4.79956 1.24292 4.64062C1.33469 4.48174 1.51803 4.3989 1.69775 4.43555L2.99194 4.69995C3.46922 4.04586 4.04586 3.46922 4.69995 2.99194L4.43555 1.69849C4.39891 1.51882 4.48179 1.33545 4.64062 1.24365C4.79956 1.15189 4.99979 1.17234 5.13721 1.29419L6.12378 2.16943C6.85047 1.84632 7.63508 1.62975 8.45874 1.54321L8.87622 0.291504C8.93436 0.11741 9.09778 0 9.28125 0ZM11.7253 9.9375C11.4362 11.0172 10.4521 11.8125 9.28125 11.8125C9.05498 11.8125 8.83592 11.7818 8.6272 11.7261L6.62988 15.1809C7.43924 15.5452 8.3361 15.75 9.28125 15.75C12.632 15.75 15.387 13.2022 15.7163 9.93823L11.7253 9.9375ZM5.49463 4.03784C3.87022 5.21298 2.8125 7.1231 2.8125 9.28125C2.8125 11.4392 3.87042 13.3488 5.49463 14.5239L7.48975 11.0698C7.03254 10.6119 6.75 9.97949 6.75 9.28125C6.75 8.58245 7.03263 7.94925 7.49048 7.49121L5.49463 4.03784ZM9.28125 8.0625C8.60815 8.0625 8.0625 8.60815 8.0625 9.28125C8.0625 9.95435 8.60815 10.5 9.28125 10.5C9.95435 10.5 10.5 9.95435 10.5 9.28125C10.5 8.60815 9.95435 8.0625 9.28125 8.0625ZM9.28125 2.8125C8.33655 2.8125 7.43967 3.01616 6.63062 3.38013L8.62793 6.83496C8.83634 6.77945 9.05536 6.75 9.28125 6.75C10.4522 6.75 11.437 7.54523 11.7261 8.625L15.7163 8.62573C15.3877 5.36105 12.6325 2.8125 9.28125 2.8125Z" fill="var(--fill-0, white)"/>
</svg>
