<svg width="24" height="24" viewBox="0 0 18.9678 19.98" fill="none" xmlns="http://www.w3.org/2000/svg">
<g id="icon-fill">
<path d="M1.57889 8.79999C1.51889 9.19999 1.48888 9.59999 1.48888 9.98999C1.48888 10.38 1.51889 10.78 1.57889 11.18L0.388875 12.33C-0.021125 12.73 -0.111115 13.35 0.178885 13.85L1.47888 16.11C1.76888 16.61 2.3489 16.85 2.9089 16.69L4.50887 16.23C5.13887 16.74 5.82888 17.14 6.56888 17.43L6.96889 19.03C7.10889 19.59 7.60889 19.98 8.17889 19.98H10.7889C11.3589 19.98 11.8589 19.59 11.9989 19.03L12.3989 17.43C13.1389 17.14 13.8289 16.74 14.4589 16.23L16.0589 16.69C16.6089 16.85 17.1989 16.61 17.4889 16.11L18.7989 13.85C19.0889 13.35 18.9989 12.73 18.5789 12.33L17.3889 11.18C17.4489 10.78 17.4789 10.38 17.4789 9.98999C17.4789 9.59999 17.4489 9.19999 17.3889 8.79999L18.5789 7.65C18.9889 7.25 19.0789 6.63 18.7889 6.13L17.4889 3.87C17.1989 3.37 16.6189 3.13 16.0589 3.29L14.4589 3.75C13.8289 3.24 13.1389 2.84 12.3989 2.55L11.9989 0.95C11.8589 0.39 11.3589 0 10.7889 0H8.17889C7.60889 0 7.10889 0.39 6.96889 0.95L6.56888 2.55C5.82888 2.84 5.13887 3.24 4.50887 3.75L2.9089 3.29C2.3589 3.13 1.76888 3.37 1.47888 3.87L0.168875 6.13C-0.121125 6.63 -0.031125 7.25 0.388875 7.65L1.57889 8.79999ZM3.63888 11.31C3.53888 10.87 3.48888 10.42 3.48888 9.98999C3.48888 9.55999 3.53888 9.10999 3.63888 8.66999L3.75887 8.11999L2.19887 6.61L2.91888 5.36L5.00887 5.96L5.41888 5.58C6.08888 4.96 6.85887 4.52 7.69888 4.25L8.23888 4.08L8.76888 1.98H10.2089L10.7389 4.08L11.2789 4.25C12.1189 4.51 12.8889 4.96 13.5589 5.58L13.9689 5.96L16.0589 5.36L16.7789 6.61L15.2189 8.11999L15.3389 8.66999C15.4389 9.10999 15.4889 9.55999 15.4889 9.98999C15.4889 10.42 15.4389 10.87 15.3389 11.31L15.2189 11.86L16.7789 13.37L16.0589 14.62L13.9689 14.02L13.5589 14.4C12.8889 15.02 12.1189 15.46 11.2789 15.73L10.7389 15.9L10.2089 18H8.76888L8.23888 15.9L7.69888 15.73C6.85887 15.47 6.08888 15.02 5.41888 14.4L5.00887 14.02L2.91888 14.62L2.19887 13.37L3.75887 11.86L3.63888 11.31Z" fill="#F3F4F5"/>
<path d="M9.48878 13.99C11.6988 13.99 13.4888 12.2 13.4888 9.98999C13.4888 7.77999 11.6988 5.98999 9.48878 5.98999C7.27877 5.98999 5.48877 7.77999 5.48877 9.98999C5.48877 12.2 7.27877 13.99 9.48878 13.99ZM9.48878 7.98999C10.5888 7.98999 11.4888 8.88999 11.4888 9.98999C11.4888 11.09 10.5888 11.99 9.48878 11.99C8.38878 11.99 7.48878 11.09 7.48878 9.98999C7.48878 8.88999 8.38878 7.98999 9.48878 7.98999Z" fill="#F3F4F5"/>
</g>
</svg>
