<svg width="24" height="24" viewBox="0 0 16.6667 18.3333" fill="none" xmlns="http://www.w3.org/2000/svg">
<g id="Union">
<path d="M5.83333 0C6.29357 0 6.66667 0.373096 6.66667 0.833333V17.5C6.66667 17.9602 6.29357 18.3333 5.83333 18.3333C5.3731 18.3333 5 17.9602 5 17.5V0.833333C5 0.373096 5.3731 0 5.83333 0Z" fill="white"/>
<path d="M10.8333 2.5C11.2936 2.5 11.6667 2.8731 11.6667 3.33333V15C11.6667 15.4602 11.2936 15.8333 10.8333 15.8333C10.3731 15.8333 10 15.4602 10 15V3.33333C10 2.8731 10.3731 2.5 10.8333 2.5Z" fill="white"/>
<path d="M0.833333 4.58333C1.29357 4.58333 1.66667 4.95643 1.66667 5.41667V12.9167C1.66667 13.3769 1.29357 13.75 0.833333 13.75C0.373096 13.75 0 13.3769 0 12.9167V5.41667C0 4.95643 0.373096 4.58333 0.833333 4.58333Z" fill="white"/>
<path d="M15.8333 5.83333C16.2936 5.83333 16.6667 6.20643 16.6667 6.66667V11.6667C16.6667 12.1269 16.2936 12.5 15.8333 12.5C15.3731 12.5 15 12.1269 15 11.6667V6.66667C15 6.20643 15.3731 5.83333 15.8333 5.83333Z" fill="white"/>
</g>
</svg>
