<svg width="24" height="24" viewBox="0 0 16 20" fill="none" xmlns="http://www.w3.org/2000/svg">
<g id="icon-fill">
<path d="M6 7.83984C6.0003 7.19543 6.6399 6.79197 7.1533 7.1123L10.6133 9.2725C11.1289 9.5951 11.1291 10.4061 10.6133 10.7285L7.1533 12.8877C6.6398 13.2081 6.0002 12.8047 6 12.1602V7.83984Z" fill="#F3F4F5"/>
<path fill-rule="evenodd" clip-rule="evenodd" d="M12.2061 0.00487995C14.3194 0.11211 16 1.85996 16 4V16C16 18.2091 14.2091 20 12 20H4C1.85996 20 0.11211 18.3194 0.00487995 16.2061L0 16V4C0 1.79086 1.79086 0 4 0H12L12.2061 0.00487995ZM4 2C2.89543 2 2 2.89543 2 4V16C2 17.1046 2.89543 18 4 18H12C13.1046 18 14 17.1046 14 16V4C14 2.89543 13.1046 2 12 2H4Z" fill="#F3F4F5"/>
</g>
</svg>
