<svg width="24" height="24" viewBox="0 0 18 18" fill="none" xmlns="http://www.w3.org/2000/svg">
<g id="icon-fill">
<path d="M5.5 4C5.89782 4 6.27936 4.15804 6.56066 4.43934C6.84196 4.72064 7 5.10218 7 5.5C7 5.89782 6.84196 6.27936 6.56066 6.56066C6.27936 6.84196 5.89782 7 5.5 7C5.10218 7 4.72064 6.84196 4.43934 6.56066C4.15804 6.27936 4 5.89782 4 5.5C4 5.10218 4.15804 4.72064 4.43934 4.43934C4.72064 4.15804 5.10218 4 5.5 4Z" fill="#F3F4F5"/>
<path fill-rule="evenodd" clip-rule="evenodd" d="M14.655 0C16.007 0 17.186 0.907 17.417 2.24C17.697 3.86 18 6.245 18 9C18 11.755 17.698 14.139 17.417 15.76L17.362 16.006C17.038 17.203 15.922 18 14.655 18H3.345C1.993 18 0.814 17.093 0.583 15.76L0.478 15.117C0.439645 14.868 0.403644 14.6187 0.37 14.369L0.293 14.293L0.353 14.233C0.120976 12.4983 0.00305629 10.7502 0 9C0 6.59 0.231 4.463 0.478 2.883L0.583 2.239C0.813 0.907 1.993 0 3.345 0H14.655ZM8.707 13.707C8.54353 13.8705 8.32844 13.9723 8.09835 13.9951C7.86825 14.0179 7.63737 13.9603 7.445 13.832L5.128 12.286L2.476 14.939C2.50133 15.1057 2.52733 15.2657 2.554 15.419C2.604 15.706 2.874 16 3.344 16H14.655C15.125 16 15.397 15.706 15.446 15.419C15.5167 15.015 15.586 14.5643 15.654 14.067L12 10.414L8.707 13.707ZM3.345 2C2.875 2 2.603 2.294 2.554 2.581C2.18795 4.70113 2.00262 6.84851 2 9C2 10.232 2.066 11.387 2.161 12.425L4.293 10.293C4.44582 10.1404 4.64394 10.0414 4.85772 10.0107C5.07151 9.98008 5.28947 10.0195 5.479 10.123L5.555 10.168L7.873 11.713L11.293 8.293C11.4681 8.11812 11.7018 8.01438 11.9489 8.00182C12.1961 7.98926 12.4391 8.06878 12.631 8.225L12.707 8.293L15.913 11.498C15.966 10.714 16 9.876 16 9C16 6.388 15.713 4.12 15.446 2.581C15.396 2.294 15.126 2 14.656 2H3.345Z" fill="#F3F4F5"/>
</g>
</svg>
