<svg width="24" height="24" viewBox="0 0 15.0575 15.046" fill="none" xmlns="http://www.w3.org/2000/svg">
<path id="icon-fill" d="M14.0595 7.45433C14.5095 7.25433 14.8429 6.871 14.9845 6.40433C15.1262 5.946 15.0595 5.45433 14.8012 5.05433C13.5755 3.11932 11.9362 1.48002 10.0012 0.254334C9.60122 0.00433368 9.10955 -0.0706663 8.65122 0.0710003C8.18455 0.212667 7.80122 0.546 7.60122 0.996L6.37622 3.746L3.28455 6.83767L2.83455 6.38767C2.7574 6.31052 2.6658 6.24932 2.565 6.20756C2.4642 6.16581 2.35616 6.14432 2.24705 6.14432C2.13794 6.14432 2.0299 6.16581 1.9291 6.20756C1.82829 6.24932 1.7367 6.31052 1.65955 6.38767C1.5824 6.46482 1.5212 6.55641 1.47944 6.65721C1.43769 6.75802 1.4162 6.86606 1.4162 6.97517C1.4162 7.08428 1.43769 7.19232 1.47944 7.29312C1.5212 7.39392 1.5824 7.48551 1.65955 7.56267L3.98455 9.88767L0.242882 13.6293C0.126593 13.7457 0.0475122 13.894 0.0156824 14.0554C-0.0161473 14.2168 0.000709892 14.3841 0.0641134 14.5359C0.127517 14.6877 0.234606 14.8172 0.371782 14.9081C0.508958 14.9989 0.670032 15.0469 0.834549 15.046C1.05122 15.046 1.25955 14.9627 1.42622 14.8043L5.16788 11.0627L7.49288 13.3877C7.65955 13.5543 7.86788 13.6293 8.08455 13.6293C8.30122 13.6293 8.50955 13.546 8.67622 13.3877C8.75347 13.3106 8.81476 13.219 8.85658 13.1182C8.89839 13.0174 8.91992 12.9093 8.91992 12.8002C8.91992 12.691 8.89839 12.583 8.85658 12.4821C8.81476 12.3813 8.75347 12.2898 8.67622 12.2127L8.22622 11.7627L11.3179 8.671L14.0679 7.446L14.0595 7.45433ZM10.2345 7.38767L7.03455 10.5877L4.45955 8.01267L7.65955 4.81267C7.73455 4.73767 7.79288 4.65433 7.83455 4.56267L9.10122 1.65433C10.8231 2.74431 12.2829 4.20125 13.3762 5.921L10.4845 7.20433C10.3929 7.246 10.3095 7.30433 10.2345 7.37933V7.38767Z" fill="var(--fill-0, #686A6E)"/>
</svg>
