<svg width="24" height="24" viewBox="0 0 24.0024 9.28425" fill="none" xmlns="http://www.w3.org/2000/svg">
<path id="icon-fill" fill-rule="evenodd" clip-rule="evenodd" d="M9.83665 0.568044C8.05618 0.0661642 6.19883 -0.105276 4.35658 0.0621939L0.909464 0.375574C0.394385 0.422394 0 0.854264 0 1.37146V2.47143C0 2.91683 0.291188 3.29423 0.69358 3.42363C0.705244 3.49013 0.717553 3.55923 0.730456 3.63053C0.832119 4.19223 0.97638 4.91843 1.13714 5.49143C1.2568 5.91803 1.43222 6.39303 1.60332 6.81963C2.13733 8.15073 3.36556 9.00263 4.71621 9.18443L5.13407 9.24074C6.72502 9.45484 8.31858 8.86583 9.38773 7.66833C9.89169 7.10393 10.2562 6.42913 10.452 5.69823L10.9873 3.69953C11.1103 3.24063 11.5262 2.92153 12.0013 2.92153C12.4763 2.92163 12.8921 3.24073 13.015 3.69953L13.5504 5.69853C13.7462 6.42943 14.1107 7.10423 14.6147 7.66863C15.6838 8.86603 17.2774 9.45514 18.8683 9.24094L19.2862 9.18474C20.6368 9.00294 21.8651 8.15093 22.3991 6.81983C22.5702 6.39333 22.7456 5.91823 22.8653 5.49173C23.026 4.91863 23.1703 4.19253 23.2719 3.63083C23.2848 3.55953 23.2972 3.49033 23.3088 3.42383C23.7112 3.29443 24.0024 2.91713 24.0024 2.47173V1.37171C24.0024 0.854504 23.608 0.422644 23.0929 0.375814L19.6458 0.0624442C17.8036 -0.105036 15.9462 0.0664145 14.1657 0.568285L13.7872 0.674984C13.2255 0.833314 12.6454 0.916164 12.062 0.921434C11.4113 0.919744 10.7638 0.829384 10.1374 0.652814L9.83665 0.568044ZM2.73796 3.34983C2.63868 2.76043 3.05593 2.18873 3.6511 2.13458L4.53765 2.05398C5.76009 1.94285 6.99019 2.00365 8.19228 2.23313C8.77981 2.34523 9.11907 2.94453 8.96431 3.52233L8.52009 5.18073C8.40526 5.60953 8.19145 6.00523 7.89586 6.33633C7.26875 7.03873 6.33405 7.38423 5.40089 7.25863L4.98303 7.20233C4.2742 7.10693 3.69923 6.67243 3.45953 6.07493C3.29904 5.67493 3.15402 5.27643 3.06281 4.95133C2.91489 4.42403 2.82836 3.88643 2.73796 3.34983ZM21.2644 3.35003C21.3637 2.76073 20.9465 2.18893 20.3513 2.13482L19.4647 2.05422C18.2423 1.94309 17.0122 2.0039 15.8101 2.23333C15.2226 2.34553 14.8833 2.94483 15.0381 3.52263L15.4823 5.18103C15.5971 5.60973 15.8109 6.00553 16.1065 6.33663C16.7336 7.03893 17.6683 7.38443 18.6015 7.25883L19.0194 7.20253C19.7282 7.10713 20.3032 6.67273 20.5429 6.07523C20.7034 5.67513 20.8484 5.27663 20.9396 4.95153C21.0875 4.42423 21.174 3.88663 21.2644 3.35003Z" fill="#F3F4F5"/>
</svg>
