<svg width="24" height="24" viewBox="0 0 17.9129 20" fill="none" xmlns="http://www.w3.org/2000/svg">
<g id="icon-fill">
<path d="M12.5702 16.759C12.4729 17.6496 12.0503 18.4729 11.3833 19.071C10.7164 19.6691 9.8521 19.9999 8.95625 20L8.76925 19.995C7.90686 19.9499 7.0886 19.5997 6.46064 19.0069C5.83267 18.4141 5.43592 17.6174 5.34125 16.759C5.99391 16.831 6.68625 16.884 7.41825 16.918C7.53202 17.2346 7.74071 17.5083 8.01581 17.7018C8.29092 17.8953 8.61904 17.9992 8.9554 17.9993C9.29175 17.9994 9.61994 17.8957 9.89517 17.7024C10.1704 17.5091 10.3793 17.2355 10.4932 16.919C11.1871 16.8883 11.8798 16.8349 12.5702 16.759Z" fill="#F3F4F5"/>
<path fill-rule="evenodd" clip-rule="evenodd" d="M9.28427 0.00802357C10.1153 0.049222 10.9301 0.253872 11.6821 0.610264C12.434 0.966657 13.1082 1.4678 13.6663 2.08502C14.7322 3.25464 15.3221 4.78058 15.3203 6.36302V8.22502C15.3203 9.05844 15.5143 9.8804 15.887 10.6259C16.2596 11.3713 16.8007 12.0198 17.4673 12.52C18.1513 13.033 18.0323 14.038 17.2173 14.293L17.0773 14.333L17.0543 14.343L16.8103 14.413L16.4503 14.515L16.0753 14.611C15.9373 14.6464 15.7949 14.682 15.6483 14.718L15.4253 14.77L15.2553 14.807L15.0453 14.852L14.7633 14.909L14.5943 14.941L14.3093 14.994L14.0333 15.041L13.8233 15.076C13.7453 15.0887 13.6666 15.1007 13.5873 15.112L13.2553 15.162L12.7583 15.227L12.4683 15.26L12.1243 15.298L11.9773 15.311C11.8473 15.3237 11.7166 15.3357 11.5853 15.347L11.1363 15.38L10.9543 15.393C10.7903 15.403 10.6239 15.4117 10.4553 15.419L10.3173 15.426L9.98327 15.436C9.87394 15.4407 9.76394 15.4444 9.65327 15.447L8.95627 15.454L8.36527 15.449C7.9646 15.4417 7.5756 15.4274 7.19827 15.406L6.65327 15.372L6.45027 15.356C6.20165 15.337 5.95329 15.3147 5.70527 15.289L5.64727 15.283L5.09627 15.22L4.86627 15.19L4.66227 15.163C4.39502 15.1255 4.12833 15.0842 3.86227 15.039L3.74427 15.019C3.58494 14.991 3.42994 14.962 3.27927 14.932C3.1526 14.908 3.0286 14.8837 2.90727 14.859C2.76727 14.8297 2.6306 14.7997 2.49727 14.769C2.3706 14.7417 2.2476 14.714 2.12827 14.686L1.80527 14.604L1.53927 14.537L1.46027 14.515L1.37427 14.492L1.11427 14.415L0.85927 14.343L0.83327 14.333L0.69727 14.293C-0.11973 14.038 -0.23873 13.033 0.44627 12.52C1.0702 12.0517 1.58458 11.453 1.95364 10.7657C2.32269 10.0783 2.53755 9.31883 2.58327 8.54002L2.59327 8.22502V6.36302C2.59306 5.82674 2.66025 5.29255 2.79327 4.77302C2.8986 4.36636 3.04094 3.97669 3.22027 3.60402C3.89497 2.20891 5.05296 1.106 6.47927 0.500024C7.2627 0.167779 8.10531 -0.00230897 8.95627 2.36716e-05L9.28427 0.00802357ZM8.95627 2.00002C7.79913 2.00002 6.68938 2.4597 5.87116 3.27792C5.05294 4.09614 4.59327 5.20588 4.59327 6.36302V8.39702C4.59266 10.0146 4.03347 11.5822 3.01027 12.835C4.38735 13.1349 5.78609 13.3248 7.19327 13.403C7.35194 13.4117 7.51294 13.4184 7.67627 13.423C8.08827 13.4424 8.51494 13.4527 8.95627 13.454C9.4076 13.4527 9.84327 13.4424 10.2633 13.423C10.4179 13.4177 10.5703 13.411 10.7203 13.403C12.3793 13.306 13.7803 13.083 14.9023 12.835C13.8799 11.5814 13.3212 10.0136 13.3203 8.39602V6.36402C13.3201 6.14172 13.303 5.91975 13.2693 5.70002C13.1738 5.06961 12.9407 4.46796 12.5864 3.93787C12.232 3.40778 11.7653 2.96227 11.2193 2.63302C10.5386 2.21618 9.75541 1.99701 8.95727 2.00002" fill="#F3F4F5"/>
</g>
</svg>
