<svg width="24" height="24" viewBox="0 0 18 19" fill="none" xmlns="http://www.w3.org/2000/svg">
<g id="icon-fill">
<path d="M12.938 10.508C13.0911 10.5274 13.2375 10.5819 13.366 10.6674C13.4945 10.7528 13.6015 10.8668 13.6785 11.0004C13.7556 11.1341 13.8007 11.2837 13.8104 11.4377C13.82 11.5917 13.7938 11.7458 13.734 11.888C13.414 12.648 12.926 13.441 12.137 14.04C11.335 14.65 10.3 15 9 15C7.7 15 6.666 14.65 5.864 14.04C5.174 13.515 4.714 12.843 4.394 12.174L4.266 11.889C4.20178 11.7369 4.17621 11.5713 4.19158 11.4069C4.20695 11.2425 4.26278 11.0845 4.35408 10.947C4.44539 10.8094 4.56932 10.6966 4.71484 10.6186C4.86035 10.5406 5.0229 10.4999 5.188 10.5H12.812L12.938 10.508ZM5.5 4C6.328 4 7 4.895 7 6C7 7.105 6.328 8 5.5 8C4.672 8 4 7.105 4 6C4 4.895 4.672 4 5.5 4ZM12.5 4C13.328 4 14 4.895 14 6C14 7.105 13.328 8 12.5 8C11.672 8 11 7.105 11 6C11 4.895 11.672 4 12.5 4Z" fill="#F3F4F5"/>
<path fill-rule="evenodd" clip-rule="evenodd" d="M15.154 0.00399995C15.922 0.0434743 16.6455 0.376343 17.1751 0.933873C17.7047 1.4914 18 2.23102 18 3V10C18 11.1819 17.7672 12.3522 17.3149 13.4442C16.8626 14.5361 16.1997 15.5282 15.364 16.364C14.5282 17.1997 13.5361 17.8626 12.4442 18.3149C11.3522 18.7672 10.1819 19 9 19C7.8181 19 6.64778 18.7672 5.55585 18.3149C4.46392 17.8626 3.47177 17.1997 2.63604 16.364C1.80031 15.5282 1.13738 14.5361 0.685084 13.4442C0.232792 12.3522 -1.76116e-08 11.1819 0 10V3C1.14645e-05 2.23102 0.295313 1.4914 0.824929 0.933873C1.35455 0.376343 2.07803 0.0434743 2.846 0.00399995L3 0H15L15.154 0.00399995ZM3 2C2.73478 2 2.48043 2.10536 2.29289 2.29289C2.10536 2.48043 2 2.73478 2 3V10C2 10.9193 2.18106 11.8295 2.53284 12.6788C2.88463 13.5281 3.40024 14.2997 4.05025 14.9497C4.70026 15.5998 5.47194 16.1154 6.32122 16.4672C7.17049 16.8189 8.08075 17 9 17C9.91925 17 10.8295 16.8189 11.6788 16.4672C12.5281 16.1154 13.2997 15.5998 13.9497 14.9497C14.5998 14.2997 15.1154 13.5281 15.4672 12.6788C15.8189 11.8295 16 10.9193 16 10V3C16 2.73478 15.8946 2.48043 15.7071 2.29289C15.5196 2.10536 15.2652 2 15 2H3Z" fill="#F3F4F5"/>
</g>
</svg>
